<svg width="363" height="386" viewBox="0 0 363 386" fill="none" xmlns="http://www.w3.org/2000/svg">
<path fill-rule="evenodd" clip-rule="evenodd" d="M351.978 340.684L286.249 382.299C270.48 392.271 249.945 380.932 249.945 362.235V187.371C249.945 178.324 244.816 170.081 236.73 166.081L77.0933 87.1927C60.3994 78.93 59.2932 55.4887 75.1624 45.6981L143.506 3.51988C150.486 -0.782373 159.175 -1.16435 166.496 2.51468L349.906 94.4503C357.932 98.4711 363 106.694 363 115.68V320.62C363 328.762 358.837 336.341 351.978 340.684ZM114.182 179.168L115.811 244.325C115.952 249.774 119.029 254.719 123.856 257.212L184.537 288.615C194.895 293.982 195.358 308.658 185.362 314.669L96.4822 368.146C91.997 370.84 86.4458 370.981 81.8198 368.528L7.88431 329.004C3.03707 326.41 0 321.344 0 315.835V231.68C0 226.493 2.67503 221.688 7.07979 218.974L91.4942 166.845C101.269 160.814 113.9 167.669 114.182 179.168Z" fill="url(#paint0_linear_4330_243)"/>
<defs>
<linearGradient id="paint0_linear_4330_243" x1="118.305" y1="89.9871" x2="282.209" y2="413.741" gradientUnits="userSpaceOnUse">
<stop stop-color="#B796FF"/>
<stop offset="0.98" stop-color="#FF5F07"/>
</linearGradient>
</defs>
</svg>
