<svg width="741" height="240" viewBox="0 0 741 240" fill="none" xmlns="http://www.w3.org/2000/svg">
<path d="M248.8 69.4C248.8 63.2 253.6 58.4 259.8 58.4C266.2 58.4 271 63.2 271 69.4V180.2H330C335.6 180.2 340 184.6 340 190.2C340 195.6 335.6 200 330 200H259.8C253.6 200 248.8 195.2 248.8 189V69.4ZM350.144 106.8C350.144 100.8 354.744 96.2 360.744 96.2C366.744 96.2 371.144 100.8 371.144 106.8V157.6C371.144 172.6 381.944 182.6 396.744 182.6C411.144 182.6 422.144 172.6 422.144 157.6V106.8C422.144 100.8 426.744 96.2 432.744 96.2C438.744 96.2 443.144 100.8 443.144 106.8V157.6C443.144 184 423.344 202 396.744 202C369.744 202 350.144 184 350.144 157.6V106.8ZM465.988 106.8C465.988 100.8 470.588 96.2 476.588 96.2C482.588 96.2 486.988 100.8 486.988 106.8V119.6C492.588 105.4 503.988 95.8 518.588 95.8C535.188 95.8 547.588 106.6 552.388 123C557.788 106.2 570.188 95.8 586.188 95.8C607.988 95.8 623.188 114 623.188 139V191C623.188 197 618.588 201.6 612.588 201.6C606.588 201.6 602.188 197 602.188 191V142.2C602.188 126.4 592.188 115 579.188 115C565.188 115 554.988 126.4 554.988 142.2V191C554.988 197 550.588 201.6 544.588 201.6C538.588 201.6 533.988 197 533.988 191V142.2C533.988 126.4 524.188 115 510.988 115C497.188 115 486.988 126.4 486.988 142.2V191C486.988 197 482.588 201.6 476.588 201.6C470.588 201.6 465.988 197 465.988 191V106.8ZM639.87 173.4C639.87 151.8 658.27 143.6 677.47 141.6L697.27 139.6C704.67 139 708.47 136.2 708.47 129.6C708.47 119.6 699.87 113.4 687.87 113.4C676.87 113.4 668.07 118 661.67 128.8C659.67 131.4 657.07 133 653.47 133C648.07 133 643.67 128.8 643.67 123.2C643.67 110.8 663.87 95.8 687.87 95.8C711.47 95.8 729.47 108.2 729.47 133V191C729.47 197 724.87 201.6 718.87 201.6C712.87 201.6 708.47 197 708.47 191V175.6C701.47 193.2 688.67 202 670.67 202C653.67 202 639.87 191 639.87 173.4ZM660.87 171.8C660.87 179.8 667.47 185 677.47 185C695.07 185 708.47 171 708.47 156V152C706.27 154 702.47 154.8 696.87 155.4L677.47 157.8C667.67 159 660.87 163.6 660.87 171.8Z" fill="#B796FF"/>
<path fill-rule="evenodd" clip-rule="evenodd" d="M175 193.86L142.32 214.56C134.48 219.52 124.27 213.88 124.27 204.58V117.6C124.27 113.1 121.72 109 117.7 107.01L38.33 67.77C30.03 63.66 29.48 52 37.37 47.13L71.35 26.15C74.82 24.01 79.14 23.82 82.78 25.65L173.97 71.38C177.96 73.38 180.48 77.47 180.48 81.94V183.88C180.48 187.93 178.41 191.7 175 193.86ZM56.77 113.52L57.58 145.93C57.65 148.64 59.18 151.1 61.58 152.34L91.75 167.96C96.9 170.63 97.13 177.93 92.16 180.92L47.97 207.52C45.74 208.86 42.98 208.93 40.68 207.71L3.92 188.05C1.51 186.76 0 184.24 0 181.5V139.64C0 137.06 1.33 134.67 3.52 133.32L45.49 107.39C50.35 104.39 56.63 107.8 56.77 113.52Z" fill="url(#paint0_linear_4001_140)"/>
<defs>
<linearGradient id="paint0_linear_4001_140" x1="58.82" y1="69.16" x2="140.37" y2="230.17" gradientUnits="userSpaceOnUse">
<stop stop-color="#B796FF"/>
<stop offset="0.98" stop-color="#FF5F07"/>
</linearGradient>
</defs>
</svg>
